<?xml version="1.0" encoding="UTF-8" standalone="no"?>
<!-- Created with Inkscape (http://www.inkscape.org/) -->

<svg
   xmlns:dc="http://purl.org/dc/elements/1.1/"
   xmlns:cc="http://creativecommons.org/ns#"
   xmlns:rdf="http://www.w3.org/1999/02/22-rdf-syntax-ns#"
   xmlns:svg="http://www.w3.org/2000/svg"
   xmlns="http://www.w3.org/2000/svg"
   xmlns:sodipodi="http://sodipodi.sourceforge.net/DTD/sodipodi-0.dtd"
   xmlns:inkscape="http://www.inkscape.org/namespaces/inkscape"
   width="200.34189mm"
   height="45.182117mm"
   viewBox="0 0 200.34189 45.182117"
   version="1.1"
   id="svg4881"
   inkscape:version="0.92.4 (5da689c313, 2019-01-14)"
   sodipodi:docname="bg_beach.svg">
  <defs
     id="defs4875" />
  <sodipodi:namedview
     id="base"
     pagecolor="#ffffff"
     bordercolor="#666666"
     borderopacity="1.0"
     inkscape:pageopacity="0.0"
     inkscape:pageshadow="2"
     inkscape:zoom="0.9899495"
     inkscape:cx="529.66067"
     inkscape:cy="-66.99024"
     inkscape:document-units="mm"
     inkscape:current-layer="layer1"
     showgrid="false"
     inkscape:window-width="1920"
     inkscape:window-height="1017"
     inkscape:window-x="1912"
     inkscape:window-y="46"
     inkscape:window-maximized="1"
     fit-margin-top="0"
     fit-margin-left="0"
     fit-margin-right="0"
     fit-margin-bottom="0" />
  <metadata
     id="metadata4878">
    <rdf:RDF>
      <cc:Work
         rdf:about="">
        <dc:format>image/svg+xml</dc:format>
        <dc:type
           rdf:resource="http://purl.org/dc/dcmitype/StillImage" />
        <dc:title></dc:title>
      </cc:Work>
    </rdf:RDF>
  </metadata>
  <g
     inkscape:label="Capa 1"
     inkscape:groupmode="layer"
     id="layer1"
     transform="translate(-4.7207424,-93.492241)">
    <rect
       style="fill:#80e5ff;stroke:none;stroke-width:0.0994252;stroke-opacity:1"
       id="rect5531"
       width="200.05832"
       height="25.670263"
       x="4.7207966"
       y="93.492241" />
    <path
       style="fill:#00ccff;stroke:none;stroke-width:0.10210105px;stroke-linecap:butt;stroke-linejoin:miter;stroke-opacity:1"
       d="m 10.649134,130.62689 c 0,0 46.297497,3.24056 62.671002,-0.0754 16.373503,-3.31591 29.359394,1.65796 53.919644,1.43187 24.56026,-0.22608 9.31596,-4.59706 36.98154,-3.69272 27.66558,0.90434 40.65147,1.5826 40.65147,1.5826 V 116.1574 c 0,0 -32.50845,-1.43187 -102.38977,-1.43187 -80.526109,0 -97.7622226,1.43187 -97.7622226,1.43187 v 14.62018 z"
       id="path4883"
       inkscape:connector-curvature="0"
       sodipodi:nodetypes="csssccsccc" />
    <path
       style="fill:#d3bc5f;stroke:none;stroke-width:0.07778554;stroke-opacity:1"
       d="m 204.87279,122.75023 0.18984,0.0154 c 0,0 -12.9983,-0.33817 -40.6901,-0.78906 -27.6918,-0.4509 -12.433,1.72843 -37.01654,1.84115 -24.58354,0.11273 -37.581801,-2.36719 -53.970821,-0.71391 -16.389028,1.65328 -62.730361,0.0376 -62.730361,0.0376 l -5.9339566,0.0751 v 11.45553 H 204.6176 l 0.44503,-11.90647 z"
       id="rect5443"
       inkscape:connector-curvature="0"
       sodipodi:nodetypes="ccssscccccc" />
    <path
       inkscape:connector-curvature="0"
       style="fill:#ffdd55;stroke:none;stroke-width:0.08396054;stroke-opacity:1"
       d="m 204.62008,124.73684 c 0,0 -13.43802,-0.39586 -40.99943,-0.92367 -27.5614,-0.52781 -12.37445,2.02327 -36.84223,2.15523 -24.46778,0.13195 -37.404831,-2.771 -53.716685,-0.8357 -16.311853,1.93531 -62.434974,0.044 -62.434974,0.044 l -5.9060186,0.088 v 13.40966 H 204.87279 c 0.19843,-2.60092 -0.25271,-16.06901 -0.25271,-13.93752 z"
       id="rect5443-5"
       sodipodi:nodetypes="csssccccc" />
  </g>
</svg>
