<?xml version="1.0" encoding="UTF-8" standalone="no"?>
<!-- Created with Inkscape (http://www.inkscape.org/) -->

<svg
   xmlns:dc="http://purl.org/dc/elements/1.1/"
   xmlns:cc="http://creativecommons.org/ns#"
   xmlns:rdf="http://www.w3.org/1999/02/22-rdf-syntax-ns#"
   xmlns:svg="http://www.w3.org/2000/svg"
   xmlns="http://www.w3.org/2000/svg"
   xmlns:sodipodi="http://sodipodi.sourceforge.net/DTD/sodipodi-0.dtd"
   xmlns:inkscape="http://www.inkscape.org/namespaces/inkscape"
   width="156.77139mm"
   height="253.93889mm"
   viewBox="0 0 156.77139 253.93889"
   version="1.1"
   id="svg8"
   inkscape:version="0.92.4 (5da689c313, 2019-01-14)"
   sodipodi:docname="palm.svg">
  <defs
     id="defs2">
    <inkscape:perspective
       sodipodi:type="inkscape:persp3d"
       inkscape:vp_x="0 : 148.49999 : 1"
       inkscape:vp_y="0 : 999.99996 : 0"
       inkscape:vp_z="210.00001 : 148.49999 : 1"
       inkscape:persp3d-origin="105 : 98.999996 : 1"
       id="perspective3759" />
  </defs>
  <sodipodi:namedview
     id="base"
     pagecolor="#ffffff"
     bordercolor="#666666"
     borderopacity="1.0"
     inkscape:pageopacity="0.0"
     inkscape:pageshadow="2"
     inkscape:zoom="0.7"
     inkscape:cx="182.09269"
     inkscape:cy="642.10171"
     inkscape:document-units="mm"
     inkscape:current-layer="layer1"
     showgrid="false"
     inkscape:window-width="1920"
     inkscape:window-height="1017"
     inkscape:window-x="1912"
     inkscape:window-y="46"
     inkscape:window-maximized="1"
     fit-margin-top="0"
     fit-margin-left="0"
     fit-margin-right="0"
     fit-margin-bottom="0" />
  <metadata
     id="metadata5">
    <rdf:RDF>
      <cc:Work
         rdf:about="">
        <dc:format>image/svg+xml</dc:format>
        <dc:type
           rdf:resource="http://purl.org/dc/dcmitype/StillImage" />
        <dc:title></dc:title>
      </cc:Work>
    </rdf:RDF>
  </metadata>
  <g
     inkscape:label="Capa 1"
     inkscape:groupmode="layer"
     id="layer1"
     transform="translate(-3.9082031,-17.237876)">
    <path
       style="fill:#a05a2c;stroke:#000000;stroke-width:0.26458332px;stroke-linecap:butt;stroke-linejoin:miter;stroke-opacity:1"
       d="m 138.38845,247.41228 c -8.93447,1.34404 -17.97881,1.88018 -27.00786,1.47319 -2.46358,0.13284 -5.22925,-0.51926 -7.47272,0.73133 -2.25093,1.52635 -2.36237,4.50614 -1.71721,6.89106 0.61739,3.67403 0.9938,7.90248 3.80545,10.65206 3.01794,2.56979 7.11026,1.15337 10.67303,1.53699 5.45127,0.11033 10.74992,1.49191 16.11035,2.29172 4.91702,0.57647 8.88076,-3.40196 11.02596,-7.37731 2.01854,-3.69432 3.06214,-8.3552 1.49266,-12.38118 -1.32895,-2.44823 -4.16137,-3.89911 -6.90966,-3.81786 z"
       id="path4873"
       inkscape:connector-curvature="0" />
    <path
       style="fill:#803300;stroke:#000000;stroke-width:0.26458332px;stroke-linecap:butt;stroke-linejoin:miter;stroke-opacity:1"
       d="m 107.26942,233.77591 c -3.32414,0.46768 -5.38735,4.00107 -4.98014,7.17746 -0.27857,4.69978 -0.95559,9.54643 0.32358,14.13597 1.25325,2.47401 4.28882,2.80879 6.73499,2.44223 7.64408,-0.29903 15.28341,0.55193 22.73532,2.23849 2.87905,0.43183 5.80269,1.41899 8.71805,1.11789 3.69202,-0.9103 6.13685,-4.97293 5.41879,-8.65219 -0.30384,-5.04652 -1.37818,-10.14974 -3.62665,-14.63734 -2.52415,-2.32506 -6.16977,-1.13154 -9.22269,-1.56167 -8.74064,-0.49135 -17.33885,-2.34038 -26.10125,-2.26084 z"
       id="path4871"
       inkscape:connector-curvature="0" />
    <path
       style="fill:#a05a2c;stroke:#000000;stroke-width:0.26458332px;stroke-linecap:butt;stroke-linejoin:miter;stroke-opacity:1"
       d="m 108.53136,222.48926 c -3.05765,0.59879 -4.57287,3.81448 -4.53409,6.67504 -0.61406,3.81103 -1.59842,7.64625 -1.06092,11.50008 1.119,3.00625 4.66725,4.21609 7.61984,3.58402 9.94316,-0.53491 19.90909,-0.38973 29.85643,-0.44416 3.02706,-0.23462 3.96004,-4.20102 2.62723,-6.51588 -1.09761,-3.468 -1.66771,-7.17569 -2.70837,-10.58644 -1.8973,-1.1203 -4.26459,-0.70528 -6.34689,-1.24747 -8.45425,-1.22575 -16.88602,-3.13554 -25.45323,-2.96519 z"
       id="path4869"
       inkscape:connector-curvature="0" />
    <path
       style="fill:#803300;stroke:#000000;stroke-width:0.26458332px;stroke-linecap:butt;stroke-linejoin:miter;stroke-opacity:1"
       d="m 110.34468,209.45956 c -2.45587,0.40422 -3.62491,3.02316 -3.57067,5.27158 -0.80454,4.53402 -2.14815,9.12573 -1.97421,13.68075 1.04441,2.87482 4.47772,4.12478 7.28969,3.35079 9.35584,-0.69992 18.71445,-2.07377 27.94951,-3.62984 1.3576,-1.98163 -0.0251,-4.4776 0.12415,-6.64317 -0.2698,-2.87194 -0.53959,-5.7439 -0.80938,-8.61584 -3.53963,-1.19341 -7.32133,-1.04371 -10.96474,-1.83052 -5.97708,-0.83786 -12.00828,-1.63149 -18.04435,-1.58375 z"
       id="path4867"
       inkscape:connector-curvature="0" />
    <path
       style="fill:#a05a2c;stroke:#000000;stroke-width:0.26458332px;stroke-linecap:butt;stroke-linejoin:miter;stroke-opacity:1"
       d="m 137.50168,199.46844 c -9.11171,0.55861 -18.30412,0.5032 -27.27017,2.14096 -2.26389,1.41283 -1.58458,4.48889 -2.31769,6.69675 -0.25519,2.0893 -1.13535,4.55122 0.11783,6.45387 1.92778,2.29888 5.18013,1.19853 7.73071,1.23329 7.80169,-0.5464 15.57458,-1.94308 23.2891,-3.02698 0.65869,-1.74781 -0.19193,-3.70876 -0.15324,-5.53134 -0.29468,-2.63109 -0.39742,-5.40524 -0.97227,-7.93968 -0.13727,-0.0402 -0.2831,-0.0336 -0.42427,-0.0269 z"
       id="path4865"
       inkscape:connector-curvature="0" />
    <path
       style="fill:#803300;stroke:#000000;stroke-width:0.26458332px;stroke-linecap:butt;stroke-linejoin:miter;stroke-opacity:1"
       d="m 133.23063,185.52201 c -7.32874,0.65034 -14.72219,1.13696 -21.93096,2.50062 -1.51491,1.36041 -0.77362,3.7263 -1.25384,5.511 -0.34509,3.69271 -1.22864,7.40987 -1.09124,11.10245 0.85919,2.00403 3.31093,1.8094 5.02549,1.23266 8.07005,-1.71947 16.12663,-4.07018 24.00168,-6.43544 -0.008,-2.94329 -0.64171,-5.93992 -0.88057,-8.88473 -0.21755,-1.76518 -0.46265,-3.52755 -0.77463,-5.27874 -1.03198,0.0841 -2.06396,0.16812 -3.09593,0.25218 z"
       id="path4863"
       inkscape:connector-curvature="0" />
    <path
       style="fill:#a05a2c;stroke:#000000;stroke-width:0.26458332px;stroke-linecap:butt;stroke-linejoin:miter;stroke-opacity:1"
       d="m 134.1732,172.07838 c -7.577,1.30489 -15.21477,2.53608 -22.72626,4.17184 -0.75329,1.33938 -0.19629,3.08818 -0.46936,4.58555 -0.0414,2.93323 -0.55915,5.94395 -0.31354,8.81777 1.23009,1.5924 3.36218,0.21055 4.94491,0.18171 6.91786,-1.32583 13.934,-2.91864 20.69642,-4.69462 -0.45136,-4.35297 -1.27587,-8.77745 -2.13217,-13.06225 z"
       id="path4861"
       inkscape:connector-curvature="0" />
    <path
       style="fill:#803300;stroke:#000000;stroke-width:0.26458332px;stroke-linecap:butt;stroke-linejoin:miter;stroke-opacity:1"
       d="m 130.96094,158.12305 c -4.7854,0.61353 -9.59552,1.16895 -14.2807,2.35879 -1.96538,0.48671 -3.92126,1.0513 -5.83063,1.70957 -0.22242,0.2337 -0.0375,0.59087 -0.0616,0.87604 0.30696,4.48651 0.32708,8.98542 0.43465,13.47943 -0.0613,0.25857 0.0902,0.5876 0.389,0.56327 1.09263,0.2687 2.12791,-0.32832 3.18575,-0.49703 6.48359,-1.47119 12.92453,-3.12532 19.33345,-4.89242 -0.86664,-4.51522 -1.84084,-9.01009 -2.74219,-13.51758 -0.11627,-0.10527 -0.28293,-0.0957 -0.42773,-0.0801 z"
       id="path4859"
       inkscape:connector-curvature="0" />
    <path
       style="fill:#a05a2c;stroke:#000000;stroke-width:0.26458332px;stroke-linecap:butt;stroke-linejoin:miter;stroke-opacity:1"
       d="m 128.2793,148.8125 c -3.1451,0.13624 -6.30503,0.24569 -9.4112,0.78916 -1.90967,0.32291 -3.78318,0.83991 -5.59873,1.51477 -1.30212,0.45305 -2.58825,0.95384 -3.81039,1.59451 -0.48683,0.43196 -0.33846,1.15 -0.22137,1.70766 0.50585,2.58208 0.94518,5.17786 1.53192,7.74351 0.49854,0.10285 1.02075,-0.0184 1.5237,-0.0635 1.14061,-0.17265 2.27242,-0.40139 3.41531,-0.55918 5.0348,-0.8561 9.95583,-2.25172 14.85005,-3.68791 0.44491,0.0691 0.82293,-0.4985 0.58008,-0.88086 -0.51929,-2.63191 -0.75944,-5.34532 -1.70117,-7.87304 -0.3165,-0.27731 -0.75704,-0.30836 -1.1582,-0.28516 z"
       id="path4857"
       inkscape:connector-curvature="0" />
    <path
       style="fill:#803300;stroke:#000000;stroke-width:0.26458332px;stroke-linecap:butt;stroke-linejoin:miter;stroke-opacity:1"
       d="m 125.08789,135.15625 c -4.73422,0.19515 -9.48081,0.77926 -14.03196,2.12443 -1.22464,0.35504 -2.42607,0.78717 -3.62538,1.21583 -0.42981,0.16329 -0.77377,0.56588 -0.75282,1.04451 -0.006,0.60595 0.19789,1.18976 0.25968,1.78999 0.67168,3.90486 1.22073,7.83509 2.12314,11.69633 0.2757,0.65915 1.09602,0.76885 1.72352,0.68768 4.3673,-0.2356 8.71853,-0.98498 12.8651,-2.39237 1.84019,-0.61597 3.65496,-1.32658 5.39343,-2.18761 0.48723,-0.36 0.44331,-1.0561 0.25313,-1.56503 -0.97973,-4.1337 -2.29307,-8.18064 -3.70003,-12.18524 -0.11446,-0.15607 -0.31276,-0.25221 -0.50781,-0.22852 z"
       id="path4855"
       inkscape:connector-curvature="0" />
    <path
       style="fill:#a05a2c;stroke:#000000;stroke-width:0.26458332px;stroke-linecap:butt;stroke-linejoin:miter;stroke-opacity:1"
       d="m 120.61719,122.26172 c -5.56263,1.9889 -11.10231,4.12119 -16.29102,6.9668 -0.37707,0.25904 -0.16796,0.76997 -0.0554,1.11649 0.92301,2.78564 1.51087,5.66724 2.30926,8.48897 0.48759,0.55567 1.29776,0.4443 1.95258,0.36243 5.37121,-0.27824 10.60072,-1.75743 15.60923,-3.64826 0.45055,-0.13902 1.0903,-0.27783 1.15499,-0.84112 0.0439,-0.63897 -0.3851,-1.17539 -0.51756,-1.77991 -1.18117,-3.48907 -2.40243,-6.96695 -3.70085,-10.41298 -0.0805,-0.17511 -0.26735,-0.2911 -0.46128,-0.25242 z"
       id="path4853"
       inkscape:connector-curvature="0" />
    <path
       style="fill:#803300;stroke:#000000;stroke-width:0.26458332px;stroke-linecap:butt;stroke-linejoin:miter;stroke-opacity:1"
       d="m 115.12305,108.85156 c -4.29413,1.63438 -8.59198,3.26727 -12.78971,5.13937 -1.15968,0.50949 -2.30738,1.04565 -3.450528,1.5911 -0.02883,0.82204 0.362915,1.58519 0.69706,2.31353 0.469268,0.92786 0.944058,1.85628 1.280028,2.84257 1.14164,2.81854 2.08811,5.71068 3.18307,8.54703 0.47,0.33074 1.00018,-0.0682 1.46291,-0.20928 5.07973,-1.99565 9.99727,-4.38221 14.80662,-6.95674 0.2808,-0.0437 0.48943,-0.33945 0.32483,-0.60078 -0.27976,-0.95514 -0.73313,-1.84718 -1.07267,-2.78117 -1.33707,-3.32146 -2.69723,-6.63579 -4.21896,-9.87781 -0.0703,-0.0362 -0.14886,-0.0161 -0.22265,-0.008 z"
       id="path4851"
       inkscape:connector-curvature="0" />
    <path
       style="fill:#a05a2c;stroke:#000000;stroke-width:0.26458332px;stroke-linecap:butt;stroke-linejoin:miter;stroke-opacity:1"
       d="m 108.64505,96.604438 c -3.29421,2.615808 -6.363,5.525892 -9.547928,8.277782 -1.228301,1.28079 -2.941092,2.30278 -3.859527,3.76851 0.415216,1.93885 1.89216,3.51248 2.594806,5.37236 0.588949,0.73601 0.812956,2.72101 2.128422,2.01582 5.025397,-2.48915 10.275327,-4.81422 15.169617,-7.3825 -1.73816,-4.19091 -4.03302,-8.21191 -6.35052,-12.134654 z"
       id="path4849"
       inkscape:connector-curvature="0" />
    <path
       style="fill:#803300;stroke:#000000;stroke-width:0.26458332px;stroke-linecap:butt;stroke-linejoin:miter;stroke-opacity:1"
       d="m 100.15254,84.865103 c -3.915518,3.030202 -7.751403,6.450867 -11.553751,9.724718 -0.694301,0.880988 -2.625113,1.60955 -1.784969,2.96753 3.208742,3.583449 6.005812,7.574409 8.531265,11.671639 1.568712,0.59243 2.236716,-1.55357 3.27624,-2.22371 3.348075,-3.45803 6.741995,-6.90283 10.008215,-10.420479 -0.72005,-2.037528 -2.34702,-3.63155 -3.35591,-5.511091 -1.49924,-2.217883 -3.08024,-4.388022 -4.86167,-6.389473 l -0.21704,0.15132 z"
       id="path4847"
       inkscape:connector-curvature="0" />
    <path
       style="fill:#a05a2c;stroke:#000000;stroke-width:0.26458332px;stroke-linecap:butt;stroke-linejoin:miter;stroke-opacity:1"
       d="m 93.304899,77.808687 c -4.527521,3.686715 -8.968354,7.501411 -13.255006,11.444261 -0.887749,0.486225 -1.257578,1.624883 -0.337963,2.279449 2.867128,1.694238 5.003713,4.434379 7.719941,6.249746 1.798727,-0.336682 2.587696,-2.389603 3.922776,-3.456458 2.96962,-3.198844 6.084535,-6.380176 8.885233,-9.661604 -0.896208,-1.788076 -2.682252,-2.977375 -3.904677,-4.539774 -0.865576,-0.891606 -1.75732,-1.760675 -2.71663,-2.551782 L 93.4072,77.731664 Z"
       id="path4845"
       inkscape:connector-curvature="0" />
    <path
       style="fill:#803300;stroke:#000000;stroke-width:0.26458332px;stroke-linecap:butt;stroke-linejoin:miter;stroke-opacity:1"
       d="m 80.761477,69.39318 c -2.424605,0.271404 -5.623314,0.809035 -6.234761,3.672126 -0.225301,1.080024 -0.798764,2.344311 -0.674378,3.383774 0.966557,0.250524 1.336106,-1.263742 2.108629,-1.648843 1.673952,-1.748954 3.746854,-3.45454 5.130723,-5.302671 -0.08716,-0.07962 -0.211109,-0.133416 -0.330213,-0.104386 z"
       id="path4843"
       inkscape:connector-curvature="0" />
    <path
       style="fill:#803300;stroke:#000000;stroke-width:0.26458332px;stroke-linecap:butt;stroke-linejoin:miter;stroke-opacity:1"
       d="m 82.071992,69.249003 c -2.453725,0.41877 -3.674819,3.050308 -5.588249,4.375595 -1.286422,1.30284 -3.117217,2.385787 -3.145586,4.389244 -0.625221,3.50457 -0.795067,7.819316 2.024166,10.485665 1.318199,1.07796 2.794402,2.387804 4.504637,2.765205 1.706166,-0.250983 2.3885,-2.169276 3.667424,-3.109341 3.309379,-3.512195 6.768481,-7.036326 9.845961,-10.673796 -1.511025,-1.950697 -3.74559,-3.314558 -5.659872,-4.878721 -1.774058,-1.182897 -3.603654,-2.722407 -5.648481,-3.353851 z"
       id="path3713"
       inkscape:connector-curvature="0" />
    <path
       style="fill:#44aa00;stroke:none;stroke-width:0.26190642px;stroke-linecap:butt;stroke-linejoin:miter;stroke-opacity:1"
       d="m 86.559574,60.378225 c -3.741592,0.155581 -8.31233,1.586693 -9.443868,5.598626 -0.315002,1.354513 -0.500409,3.162252 0.408244,4.262271 2.50399,1.067385 4.892165,-0.962708 7.331334,-1.340485 7.618669,-2.195261 16.081746,-1.44022 23.010486,2.498555 6.98302,3.921393 12.65897,9.714521 18.41102,15.193158 11.19871,11.168939 22.5257,22.20776 34.40281,32.65922 -3.32443,-14.56813 -10.22044,-28.376153 -20.13108,-39.580016 -6.14555,-6.84734 -13.95268,-12.535458 -23.03011,-14.57172 -10.2564,-2.018795 -20.456153,-4.842089 -30.958836,-4.719609 z"
       id="path4694"
       inkscape:connector-curvature="0" />
    <path
       style="fill:#55d400;stroke:none;stroke-width:0.26190642px;stroke-linecap:butt;stroke-linejoin:miter;stroke-opacity:1"
       d="m 83.958699,45.431852 c -4.336434,0.04053 -9.347301,1.541674 -11.573454,5.562452 -1.54581,2.968416 -0.883603,6.521336 0.746913,9.296675 1.367917,3.057721 1.729706,6.584045 3.47712,9.435513 1.041934,0.730771 0.823833,-1.104178 0.72812,-1.586982 -0.309626,-3.582053 3.30219,-6.495261 6.691064,-6.53552 9.805661,-1.481929 19.685488,0.810207 29.132088,3.285884 6.56978,1.760887 12.76903,4.841039 18.00974,9.193974 10.48318,8.351795 19.08504,18.944664 25.43875,30.727842 C 152.42825,91.550608 146.52135,78.637865 137.12186,68.242346 129.55837,59.797492 119.52834,53.688022 108.60882,50.740873 100.53226,48.461871 92.490768,45.190124 83.958699,45.431852 Z"
       id="path3765"
       inkscape:connector-curvature="0" />
    <path
       style="fill:#44aa00;stroke:none;stroke-width:0.21029069px;stroke-linecap:butt;stroke-linejoin:miter;stroke-opacity:1"
       d="m 67.95399,70.800845 c -6.589961,0.526008 -12.051935,4.923655 -16.559176,9.400485 -8.450942,8.866941 -13.803524,21.06054 -13.18216,33.33179 0.204396,4.52125 2.395249,8.70609 3.705717,13.00179 2.680557,7.50227 4.982588,15.13157 7.549409,22.67304 2.248138,-12.69516 2.442768,-25.65331 4.651716,-38.36188 1.872705,-8.99838 4.545595,-17.940264 8.878615,-26.074031 2.927628,-4.618197 7.310072,-8.069887 11.72601,-11.140358 0.04108,-1.226479 -1.611026,-1.673231 -2.526461,-2.09858 -1.357966,-0.413425 -2.787499,-0.783103 -4.24367,-0.732256 z"
       id="path4712"
       inkscape:connector-curvature="0" />
    <path
       style="fill:#55d400;stroke:none;stroke-width:0.21029069px;stroke-linecap:butt;stroke-linejoin:miter;stroke-opacity:1"
       d="m 65.858511,55.242623 c -6.751923,0.618607 -12.188965,5.242073 -16.925483,9.695664 -9.11687,8.897795 -14.778876,21.594816 -14.139804,34.319736 0.177665,4.890607 1.096124,9.682617 2.673739,14.317987 0.962871,-14.377063 8.130738,-28.210408 19.153354,-37.456108 3.721375,-2.853415 8.298349,-5.738286 13.201261,-4.886524 1.83112,0.2119 3.454119,1.189668 5.047236,1.961118 1.406922,-0.216955 1.447022,-2.106009 1.807125,-3.170864 1.207755,-6.160071 -2.600467,-13.468977 -9.055261,-14.647167 -0.581149,-0.101528 -1.172247,-0.148497 -1.762167,-0.133842 z"
       id="path3765-4"
       inkscape:connector-curvature="0" />
    <path
       style="fill:#44aa00;stroke:none;stroke-width:0.26458332px;stroke-linecap:butt;stroke-linejoin:miter;stroke-opacity:1"
       d="m 125.35742,22.640625 c -17.5826,-0.07568 -38.873222,3.069642 -48.525389,19.841797 -6.269948,10.011094 -2.160469,23.654259 7.013672,30.226562 4.235192,-1.520742 2.397028,-7.572577 3.746094,-11.126953 1.533741,-9.155339 5.787399,-19.441513 15.535153,-22.267578 16.83841,-7.807966 35.92455,-1.744608 53.1875,-6.617187 1.65926,-4.102521 -5.11777,-4.228693 -7.37095,-5.930147 -7.48979,-2.906141 -15.56006,-4.26263 -23.58608,-4.126494 z"
       id="path4657"
       inkscape:connector-curvature="0" />
    <path
       style="fill:#55d400;stroke:none;stroke-width:0.26458332px;stroke-linecap:butt;stroke-linejoin:miter;stroke-opacity:1"
       d="m 110.37305,17.267578 c -16.023494,0.177103 -34.972702,8.438231 -39.208988,25.263672 -1.169432,5.359539 -0.186783,11.570468 2.357422,16.085938 0.760933,-12.599209 13.9925,-18.249648 23.90508,-22.685055 12.167096,-6.25043 26.222016,-7.517101 39.523886,-4.766218 6.33953,0.519695 13.26562,2.711366 19.40697,1.418069 1.71457,-3.689129 -4.48145,-4.768996 -6.36133,-6.800781 -11.81977,-7.265698 -26.0338,-8.789304 -39.62304,-8.515625 z"
       id="path3782"
       inkscape:connector-curvature="0" />
    <path
       style="fill:#44aa00;stroke:none;stroke-width:0.2583614px;stroke-linecap:butt;stroke-linejoin:miter;stroke-opacity:1"
       d="m 44.492375,61.822065 c -10.749312,0.599897 -20.405816,7.62871 -25.250139,17.102833 -4.081869,7.593703 -5.062967,16.444827 -4.037119,24.888542 0.612553,5.75571 1.861098,11.5765 3.612856,17.01846 0.604484,-0.55278 0.148845,-1.65291 0.514164,-2.38902 1.99404,-10.57334 5.049985,-20.982354 9.307974,-30.869415 2.441173,-5.104124 5.06005,-10.704147 10.102744,-13.721127 4.703487,-2.50898 10.293985,-1.568117 15.308109,-0.733803 5.816457,1.063712 11.385198,3.300319 17.239257,4.080885 0.918599,0.06833 2.767862,-0.256085 2.409672,-1.493448 C 72.389277,74.076694 70.512341,72.949344 68.95548,71.546537 62.019245,66.042632 53.606152,61.563453 44.492375,61.822065 Z"
       id="path4675"
       inkscape:connector-curvature="0" />
    <path
       style="fill:#55d400;stroke:none;stroke-width:0.2583614px;stroke-linecap:butt;stroke-linejoin:miter;stroke-opacity:1"
       d="m 41.780396,53.876815 c -9.202187,0.258345 -17.838412,5.437886 -23.15776,12.856062 -6.368873,8.37733 -8.772659,19.391899 -7.273338,29.713954 0.953382,8.986649 3.622524,17.819229 7.095054,26.006679 0.146321,-2.34306 -0.651743,-4.69158 -0.877466,-7.03782 C 15.703638,103.01099 17.276401,89.648201 23.985231,78.849637 28.256833,72.155353 34.52758,66.3191 42.22533,63.935114 c 7.319936,-2.113848 15.347466,-0.23967 21.534228,4.03261 3.635177,2.326077 6.732132,5.411362 9.98116,8.176464 1.615644,-0.180557 1.258705,-2.442411 0.532784,-3.411162 -2.656801,-3.325439 -5.869856,-6.248228 -9.062495,-9.026837 -6.574933,-5.417931 -14.696064,-9.886585 -23.430611,-9.829374 z"
       id="path3782-8"
       inkscape:connector-curvature="0" />
    <path
       style="fill:#44aa00;stroke:none;stroke-width:0.29067495px;stroke-linecap:butt;stroke-linejoin:miter;stroke-opacity:1"
       d="M 32.556641,28.861328 C 18.988097,29.642673 11.477267,43.037223 7.420625,54.288471 6.4317162,57.56933 3.8823895,62.433205 4.2285156,65.185547 11.608452,53.747041 20.524831,41.441976 33.783203,36.605469 c 9.70396,-2.994003 18.228473,4.782079 23.099609,12.332031 7.323386,9.301595 11.2699,20.831239 16.246094,31.207031 2.997119,-1.393512 6.000189,-5.521538 3.619141,-8.8125 C 71.928585,56.98403 65.162629,41.659191 50.859375,34.503906 45.234211,31.525793 39.007675,28.941008 32.556641,28.861328 Z"
       id="path3832"
       inkscape:connector-curvature="0" />
    <path
       style="fill:#55d400;stroke:none;stroke-width:0.29067495px;stroke-linecap:butt;stroke-linejoin:miter;stroke-opacity:1"
       d="M 35.162109,19.292969 C 20.469691,20.177839 12.47727,35.127757 8.3677437,47.504797 6.5873074,53.148455 4.2107086,60.50878 3.9082031,65.443359 7.9843002,52.126834 13.435639,37.112816 26.320312,30.021484 c 12.23722,-5.509925 25.003529,3.23632 33.652344,11.373047 8.83132,8.213026 16.278544,19.42665 19.861328,30.19336 C 82.631959,66.843878 78.333148,61.360014 78.064109,56.377546 75.722372,43.9888 68.4001,32.586587 57.039062,26.740234 50.341372,22.906632 42.982185,19.603324 35.162109,19.292969 Z"
       id="path3782-81"
       inkscape:connector-curvature="0" />
  </g>
</svg>
